<svg xmlns="http://www.w3.org/2000/svg" viewBox="0 0 1065.09 744.3"><defs><style>.cls-1,.cls-11,.cls-14,.cls-2,.cls-20,.cls-23,.cls-3,.cls-36,.cls-4,.cls-42,.cls-43,.cls-44,.cls-45,.cls-46,.cls-47,.cls-48,.cls-49,.cls-50,.cls-51,.cls-52,.cls-53,.cls-54,.cls-8{fill:none;stroke-miterlimit:10;}.cls-1{stroke:#58595b;}.cls-2,.cls-8{stroke:#ad1f24;}.cls-14,.cls-3{stroke:#00988c;}.cls-20,.cls-4{stroke:#f58026;}.cls-5{fill:#807d6f;}.cls-6{font-size:14px;}.cls-29,.cls-31,.cls-6{fill:#fff;}.cls-12,.cls-15,.cls-21,.cls-24,.cls-29,.cls-31,.cls-37,.cls-39,.cls-6,.cls-9{font-family:Roboto-Regular, Roboto;}.cls-7{letter-spacing:-0.01em;}.cls-14,.cls-20,.cls-23,.cls-8{stroke-width:2px;}.cls-15,.cls-21,.cls-24,.cls-9{font-size:12px;}.cls-28,.cls-9{fill:#ad1f24;}.cls-10{letter-spacing:-0.01em;}.cls-11,.cls-42,.cls-43,.cls-44,.cls-45,.cls-46,.cls-47,.cls-48,.cls-49,.cls-50,.cls-51,.cls-52,.cls-53,.cls-54{stroke:#672e80;}.cls-12{font-size:8.56px;}.cls-12,.cls-55{fill:#e01b21;}.cls-13{letter-spacing:-0.01em;}.cls-15,.cls-27{fill:#00988c;}.cls-15{letter-spacing:-0.04em;}.cls-16{letter-spacing:-0.05em;}.cls-17{letter-spacing:-0.05em;}.cls-18{letter-spacing:-0.04em;}.cls-19{letter-spacing:-0.05em;}.cls-21,.cls-26{fill:#f58026;}.cls-22{letter-spacing:-0.01em;}.cls-23{stroke:#2a80af;}.cls-24,.cls-25{fill:#2a80af;}.cls-29,.cls-31{font-size:11.17px;}.cls-29{letter-spacing:-0.05em;}.cls-30{letter-spacing:-0.04em;}.cls-32{letter-spacing:-0.01em;}.cls-33{letter-spacing:-0.02em;}.cls-34{letter-spacing:-0.01em;}.cls-35{letter-spacing:0em;}.cls-36{stroke:#1e345d;stroke-width:1.5px;}.cls-37{font-size:10.2px;}.cls-37,.cls-39{fill:#1e345d;}.cls-38{letter-spacing:-0.01em;}.cls-39{font-size:10px;}.cls-40{letter-spacing:-0.01em;}.cls-41{letter-spacing:0em;}.cls-42{stroke-dasharray:3.91 3.91;}.cls-43{stroke-dasharray:4.02 4.02;}.cls-44{stroke-dasharray:4.06 4.06;}.cls-45{stroke-dasharray:3.97 3.97;}.cls-46{stroke-dasharray:3.92 3.92;}.cls-47{stroke-dasharray:3.78 3.78;}.cls-48{stroke-dasharray:3.93 3.93;}.cls-49{stroke-dasharray:4.06 4.06;}.cls-50{stroke-dasharray:3.99 3.99;}.cls-51{stroke-dasharray:3.93 3.93;}.cls-52{stroke-dasharray:3.97 3.97;}.cls-53{stroke-dasharray:3.95 3.95;}.cls-54{stroke-dasharray:4.01 4.01;}.cls-56{letter-spacing:-0.01em;}</style></defs><title>org-structure_2</title><g id="Layer_2" data-name="Layer 2"><g id="Layer_1-2" data-name="Layer 1"><line class="cls-1" x1="258.39" y1="182.06" x2="258.39" y2="109.07"/><line class="cls-1" x1="542.61" y1="182.06" x2="542.61" y2="145.57"/><line class="cls-1" x1="542.61" y1="82.04" x2="542.61" y2="45.54"/><line class="cls-1" x1="258.39" y1="316.99" x2="258.39" y2="246.68"/><line class="cls-1" x1="328.44" y1="318.34" x2="328.44" y2="281.84"/><line class="cls-1" x1="680.22" y1="281.84" x2="401.15" y2="281.84"/><line class="cls-1" x1="400" y1="318.34" x2="400" y2="281.84"/><line class="cls-1" x1="469.3" y1="318.34" x2="469.3" y2="281.84"/><line class="cls-1" x1="542.61" y1="317.88" x2="542.61" y2="245.8"/><line class="cls-1" x1="611.91" y1="318.34" x2="611.91" y2="281.84"/><line class="cls-1" x1="680.22" y1="318.34" x2="680.22" y2="281.84"/><line class="cls-1" x1="752.88" y1="317.88" x2="752.88" y2="245.8"/><line class="cls-1" x1="823.62" y1="318.34" x2="823.62" y2="281.84"/><line class="cls-1" x1="894.36" y1="318.34" x2="894.36" y2="281.84"/><line class="cls-1" x1="965.1" y1="317.88" x2="965.1" y2="245.8"/><line class="cls-1" x1="1035.84" y1="318.34" x2="1035.84" y2="281.84"/><line class="cls-1" x1="822.83" y1="281.84" x2="1036.37" y2="281.84"/><line class="cls-1" x1="328.55" y1="281.84" x2="37.03" y2="281.84"/><line class="cls-1" x1="752.88" y1="182.06" x2="752.88" y2="109.2"/><line class="cls-1" x1="965.1" y1="182.06" x2="965.1" y2="109.2"/><line class="cls-2" x1="257.54" y1="744.3" x2="257.54" y2="423.73"/><line class="cls-2" x1="328.26" y1="744.3" x2="328.26" y2="423.73"/><line class="cls-3" x1="398.98" y1="744.3" x2="398.98" y2="423.73"/><line class="cls-3" x1="469.7" y1="744.3" x2="469.7" y2="423.73"/><line class="cls-3" x1="540.41" y1="744.3" x2="540.41" y2="423.73"/><line class="cls-3" x1="611.13" y1="744.3" x2="611.13" y2="423.73"/><line class="cls-3" x1="681.85" y1="744.3" x2="681.85" y2="423.73"/><line class="cls-4" x1="751.56" y1="744.3" x2="751.56" y2="423.73"/><rect class="cls-5" x="417.94" y="90" width="249.33" height="39.68"/><text class="cls-6" transform="translate(511.62 113.95)"><tspan class="cls-7">K</tspan><tspan x="8.59" y="0">olegijum</tspan></text><rect class="cls-8" x="173.3" y="195.96" width="188.99" height="27.37"/><text class="cls-9" transform="translate(192.78 213.15)">P<tspan class="cls-10" x="7.57" y="0">r</tspan><tspan x="11.51" y="0">ojekti i korisnička podrška</tspan></text><rect class="cls-11" x="109.3" y="482.16" width="70.61" height="19.53"/><text class="cls-12" transform="translate(124.02 494.86)">P<tspan class="cls-13" x="5.4" y="0">r</tspan><tspan x="8.22" y="0">ojekat 1</tspan></text><rect class="cls-11" x="109.3" y="542.6" width="70.61" height="19.53"/><text class="cls-12" transform="translate(124.02 555.29)">P<tspan class="cls-13" x="5.4" y="0">r</tspan><tspan x="8.22" y="0">ojekat 2</tspan></text><rect class="cls-14" x="407.23" y="195.96" width="188.99" height="27.37"/><text class="cls-15" transform="translate(432.18 213.15)">Raz<tspan class="cls-16" x="18.42" y="0">v</tspan><tspan x="23.67" y="0">oj soft</tspan><tspan class="cls-17" x="54.1" y="0">v</tspan><tspan class="cls-18" x="59.36" y="0">erskih p</tspan><tspan class="cls-19" x="97.43" y="0">r</tspan><tspan x="100.9" y="0">oiz</tspan><tspan class="cls-16" x="115.16" y="0">v</tspan><tspan x="120.4" y="0">oda</tspan></text><rect class="cls-20" x="641.17" y="195.96" width="188.99" height="27.37"/><text class="cls-21" transform="translate(674.83 213.15)">Business D<tspan class="cls-22" x="59.38" y="0">ev</tspan><tspan x="71.4" y="0">elopment</tspan></text><rect class="cls-23" x="875.1" y="195.96" width="188.99" height="27.37"/><text class="cls-24" transform="translate(918.3 213.15)">Zajednič<tspan class="cls-10" x="45.52" y="0">k</tspan><tspan x="51.48" y="0">e fun</tspan><tspan class="cls-10" x="78.21" y="0">k</tspan><tspan x="84.18" y="0">cije</tspan></text><path class="cls-25" d="M1063.78,355.7a27.94,27.94,0,1,1-27.94-27.94A27.94,27.94,0,0,1,1063.78,355.7Z"/><path class="cls-25" d="M993,355.7a27.94,27.94,0,1,1-27.94-27.94A27.94,27.94,0,0,1,993,355.7Z"/><path class="cls-25" d="M922.3,355.7a27.94,27.94,0,1,1-27.94-27.94A27.94,27.94,0,0,1,922.3,355.7Z"/><path class="cls-25" d="M851.56,355.7a27.94,27.94,0,1,1-27.94-27.94A27.94,27.94,0,0,1,851.56,355.7Z"/><path class="cls-26" d="M780.82,355.7a27.94,27.94,0,1,1-27.94-27.94A27.94,27.94,0,0,1,780.82,355.7Z"/><path class="cls-27" d="M710.08,355.7a27.94,27.94,0,1,1-27.94-27.94A27.94,27.94,0,0,1,710.08,355.7Z"/><path class="cls-27" d="M639.34,355.7a27.94,27.94,0,1,1-27.94-27.94A27.94,27.94,0,0,1,639.34,355.7Z"/><path class="cls-27" d="M568.6,355.7a27.94,27.94,0,1,1-27.94-27.94A27.94,27.94,0,0,1,568.6,355.7Z"/><path class="cls-27" d="M497.86,355.7a27.94,27.94,0,1,1-27.94-27.94A27.94,27.94,0,0,1,497.86,355.7Z"/><path class="cls-28" d="M356.38,355.7a27.94,27.94,0,1,1-27.94-27.94A27.94,27.94,0,0,1,356.38,355.7Z"/><path class="cls-28" d="M285.64,355.7a27.94,27.94,0,1,1-27.94-27.94A27.94,27.94,0,0,1,285.64,355.7Z"/><text class="cls-29" transform="translate(304.31 358.97)">K<tspan class="cls-30" x="6.41" y="0">onsalting</tspan></text><text class="cls-31" transform="translate(727.92 353.64)">P<tspan class="cls-32" x="7.05" y="0">r</tspan><tspan x="10.72" y="0">odaja i</tspan><tspan x="0" y="13.41">mar</tspan><tspan class="cls-32" x="19.65" y="13.41">k</tspan><tspan x="25.2" y="13.41">eting</tspan></text><path class="cls-27" d="M427.12,355.7a27.94,27.94,0,1,1-27.94-27.94A27.94,27.94,0,0,1,427.12,355.7Z"/><text class="cls-31" transform="translate(388.79 353.64)">DEV<tspan x="0" y="13.41">ERP</tspan></text><text class="cls-31" transform="translate(246.11 358.98)">SSW</text><text class="cls-31" transform="translate(459.18 353.64)">DEV<tspan x="0" y="13.41">MLP</tspan></text><text class="cls-31" transform="translate(530.67 353.64)">DEV<tspan x="0" y="13.41">BI</tspan></text><text class="cls-31" transform="translate(597.09 353.64)">DEV<tspan x="0" y="13.41">BCCS</tspan></text><text class="cls-31" transform="translate(669.71 353.64)">TES<tspan class="cls-33" x="19.64" y="0">T</tspan><tspan x="0" y="13.41">DOC</tspan></text><text class="cls-31" transform="translate(880.81 358.98)">FINIR</text><text class="cls-31" transform="translate(953.07 358.98)">QMS</text><text class="cls-31" transform="translate(1028.42 358.98)">HR</text><text class="cls-31" transform="translate(805.86 346.74)">Opšti i<tspan x="0" y="13.41">p</tspan><tspan class="cls-33" x="6.27" y="13.41">r</tspan><tspan class="cls-34" x="9.83" y="13.41">a</tspan><tspan class="cls-35" x="15.82" y="13.41">vni </tspan><tspan x="0" y="26.81">posl</tspan><tspan class="cls-34" x="21.11" y="26.81">o</tspan><tspan x="27.4" y="26.81">vi</tspan></text><rect class="cls-36" x="0.75" y="512.49" width="60.84" height="23.27"/><text class="cls-37" transform="translate(15.2 527.11)">P<tspan class="cls-38" x="6.44" y="0">r</tspan><tspan x="9.79" y="0">ojekt</tspan></text><line class="cls-1" x1="99.91" y1="613.32" x2="70.46" y2="613.32"/><line class="cls-1" x1="99.91" y1="674.32" x2="70.46" y2="674.32"/><rect class="cls-11" x="109.3" y="603.48" width="70.61" height="19.53"/><text class="cls-12" transform="translate(124.02 616.17)">P<tspan class="cls-13" x="5.4" y="0">r</tspan><tspan x="8.22" y="0">ojekat n</tspan></text><rect class="cls-11" x="109.3" y="662.48" width="70.61" height="19.53"/><text class="cls-12" transform="translate(118.5 674.74)">P<tspan class="cls-13" x="5.4" y="0">r</tspan><tspan x="8.22" y="0">ojekat n + 1</tspan></text><rect class="cls-36" x="1.25" y="600.59" width="60.84" height="23.27"/><text class="cls-39" transform="translate(23.46 615.15)">HD</text><rect class="cls-36" x="1.25" y="660.84" width="60.84" height="23.27"/><text class="cls-37" transform="translate(8.97 675.97)">In<tspan class="cls-40" x="8.4" y="0">v</tspan><tspan class="cls-41" x="13.28" y="0">esticije</tspan></text><line class="cls-1" x1="85.91" y1="523.62" x2="67.46" y2="523.62"/><line class="cls-1" x1="100.8" y1="488.69" x2="85.91" y2="488.69"/><line class="cls-1" x1="101.7" y1="558.56" x2="85.91" y2="558.56"/><line class="cls-1" x1="85.91" y1="488.69" x2="85.91" y2="558.56"/><line class="cls-1" x1="37.03" y1="498.39" x2="37.03" y2="281.84"/><line class="cls-11" x1="199.02" y1="612.88" x2="201.02" y2="612.88"/><line class="cls-42" x1="204.94" y1="612.88" x2="249.95" y2="612.88"/><polyline class="cls-11" points="251.91 612.88 253.91 612.88 255.09 611.26"/><polyline class="cls-11" points="256.36 609.51 257.53 607.89 258.69 609.52"/><polyline class="cls-11" points="259.92 611.25 261.08 612.88 263.08 612.88"/><line class="cls-43" x1="267.09" y1="612.88" x2="819.36" y2="612.88"/><line class="cls-11" x1="821.37" y1="612.88" x2="823.37" y2="612.88"/><path class="cls-27" d="M404.41,613.53a5,5,0,1,0-5,5A5,5,0,0,0,404.41,613.53Z"/><path class="cls-27" d="M475.13,613.53a5,5,0,1,0-5,5A5,5,0,0,0,475.13,613.53Z"/><line class="cls-11" x1="199.02" y1="672.11" x2="201.02" y2="672.11"/><line class="cls-42" x1="204.94" y1="672.11" x2="249.95" y2="672.11"/><polyline class="cls-11" points="251.91 672.11 253.91 672.11 254.96 670.41"/><polyline class="cls-11" points="256.49 667.91 257.54 666.2 258.56 667.92"/><polyline class="cls-11" points="260.05 670.4 261.08 672.11 263.08 672.11"/><line class="cls-44" x1="267.13" y1="672.11" x2="532.82" y2="672.11"/><polyline class="cls-11" points="534.85 672.11 536.85 672.11 537.88 670.4"/><polyline class="cls-11" points="539.38 667.91 540.42 666.2 541.45 667.91"/><polyline class="cls-11" points="542.94 670.4 543.97 672.11 545.97 672.11"/><line class="cls-45" x1="549.94" y1="672.11" x2="603.55" y2="672.11"/><polyline class="cls-11" points="605.53 672.11 607.53 672.11 608.58 670.4"/><polyline class="cls-11" points="610.1 667.91 611.14 666.2 612.17 667.91"/><polyline class="cls-11" points="613.67 670.4 614.7 672.11 616.7 672.11"/><line class="cls-46" x1="620.62" y1="672.11" x2="744.04" y2="672.11"/><polyline class="cls-11" points="746 672.11 748 672.11 749.03 670.4"/><polyline class="cls-11" points="750.53 667.91 751.56 666.2 752.59 667.92"/><polyline class="cls-11" points="754.07 670.4 755.1 672.11 757.1 672.11"/><line class="cls-47" x1="760.88" y1="672.11" x2="819.48" y2="672.11"/><line class="cls-11" x1="821.37" y1="672.11" x2="823.37" y2="672.11"/><path class="cls-27" d="M404.41,673a5,5,0,1,0-5,5A5,5,0,0,0,404.41,673Z"/><path class="cls-27" d="M475.13,673a5,5,0,1,0-5,5A5,5,0,0,0,475.13,673Z"/><line class="cls-11" x1="198.87" y1="553.65" x2="200.87" y2="553.65"/><line class="cls-48" x1="204.79" y1="553.65" x2="249.95" y2="553.65"/><polyline class="cls-11" points="251.91 553.65 253.91 553.65 255.07 552.02"/><polyline class="cls-11" points="256.38 550.18 257.54 548.54 258.68 550.19"/><polyline class="cls-11" points="259.94 552.01 261.08 553.65 263.08 553.65"/><line class="cls-49" x1="267.13" y1="553.65" x2="532.82" y2="553.65"/><polyline class="cls-11" points="534.85 553.65 536.85 553.65 537.99 552.01"/><polyline class="cls-11" points="539.27 550.19 540.41 548.54 541.55 550.19"/><polyline class="cls-11" points="542.83 552.01 543.97 553.65 545.97 553.65"/><line class="cls-50" x1="549.96" y1="553.65" x2="819.22" y2="553.65"/><line class="cls-11" x1="821.21" y1="553.65" x2="823.21" y2="553.65"/><path class="cls-27" d="M403.62,553.3a5,5,0,1,0-5,5A5,5,0,0,0,403.62,553.3Z"/><path class="cls-27" d="M475.13,554.09a5,5,0,1,0-5,5A5,5,0,0,0,475.13,554.09Z"/><line class="cls-11" x1="199.02" y1="494.44" x2="201.02" y2="494.44"/><line class="cls-51" x1="204.95" y1="494.44" x2="391.44" y2="494.44"/><polyline class="cls-11" points="393.41 494.44 395.41 494.44 396.56 492.8"/><polyline class="cls-11" points="397.83 490.98 398.98 489.34 400.12 490.98"/><polyline class="cls-11" points="401.4 492.8 402.54 494.44 404.54 494.44"/><line class="cls-52" x1="408.52" y1="494.44" x2="462.15" y2="494.44"/><polyline class="cls-11" points="464.14 494.44 466.14 494.44 467.29 492.8"/><polyline class="cls-11" points="468.56 490.99 469.7 489.35 470.85 490.99"/><polyline class="cls-11" points="472.12 492.8 473.26 494.44 475.26 494.44"/><line class="cls-53" x1="479.21" y1="494.44" x2="603.56" y2="494.44"/><polyline class="cls-11" points="605.53 494.44 607.53 494.44 608.69 492.81"/><polyline class="cls-11" points="609.98 490.98 611.14 489.35 612.28 490.99"/><polyline class="cls-11" points="613.55 492.8 614.7 494.44 616.7 494.44"/><line class="cls-54" x1="620.72" y1="494.44" x2="819.36" y2="494.44"/><line class="cls-11" x1="821.37" y1="494.44" x2="823.37" y2="494.44"/><line class="cls-1" x1="688.66" y1="108.39" x2="966.16" y2="108.39"/><line class="cls-1" x1="257.16" y1="108.39" x2="397.66" y2="108.39"/><rect class="cls-55" x="417.94" width="249.33" height="39.68"/><text class="cls-6" transform="translate(518.18 22.95)">Di<tspan class="cls-56" x="12.58" y="0">r</tspan><tspan x="17.19" y="0">ek</tspan><tspan class="cls-10" x="31.7" y="0">t</tspan><tspan x="36.13" y="0">or</tspan></text><path class="cls-28" d="M262.54,494.89a5,5,0,1,0-5,5A5,5,0,0,0,262.54,494.89Z"/><path class="cls-28" d="M333.69,494.63a5,5,0,1,0-5,5A5,5,0,0,0,333.69,494.63Z"/><path class="cls-27" d="M545.85,494.63a5,5,0,1,0-5,5A5,5,0,0,0,545.85,494.63Z"/><path class="cls-27" d="M687.29,494.63a5,5,0,1,0-5,5A5,5,0,0,0,687.29,494.63Z"/><path class="cls-28" d="M333.69,613.53a5,5,0,1,0-5,5A5,5,0,0,0,333.69,613.53Z"/><path class="cls-28" d="M333.69,673a5,5,0,1,0-5,5A5,5,0,0,0,333.69,673Z"/><path class="cls-28" d="M333.69,554.09a5,5,0,1,0-5,5A5,5,0,0,0,333.69,554.09Z"/><path class="cls-27" d="M545.85,613.53a5,5,0,1,0-5,5A5,5,0,0,0,545.85,613.53Z"/><path class="cls-27" d="M616.57,613.53a5,5,0,1,0-5,5A5,5,0,0,0,616.57,613.53Z"/><path class="cls-27" d="M687.29,613.53a5,5,0,1,0-5,5A5,5,0,0,0,687.29,613.53Z"/><path class="cls-27" d="M687.29,673a5,5,0,1,0-5,5A5,5,0,0,0,687.29,673Z"/><path class="cls-27" d="M616.57,554.09a5,5,0,1,0-5,5A5,5,0,0,0,616.57,554.09Z"/><path class="cls-27" d="M687.29,554.09a5,5,0,1,0-5,5A5,5,0,0,0,687.29,554.09Z"/><path class="cls-26" d="M758,613.53a5.52,5.52,0,1,0-5.5,5A5.27,5.27,0,0,0,758,613.53Z"/><path class="cls-26" d="M757.13,554.09a5.07,5.07,0,1,0-5.07,5A5,5,0,0,0,757.13,554.09Z"/><path class="cls-26" d="M757,494.63a5,5,0,1,0-5,5A5,5,0,0,0,757,494.63Z"/></g></g></svg>
